<?xml version="1.0" encoding="UTF-8" standalone="no"?>
<svg
   xmlns:dc="http://purl.org/dc/elements/1.1/"
   xmlns:cc="http://creativecommons.org/ns#"
   xmlns:rdf="http://www.w3.org/1999/02/22-rdf-syntax-ns#"
   xmlns:svg="http://www.w3.org/2000/svg"
   xmlns="http://www.w3.org/2000/svg"
   id="svg28"
   version="1.1"
   style="overflow:visible"
   viewBox="-240 -126 480 252"
   height="1008px"
   width="1920px">
  <metadata
     id="metadata34">
    <rdf:RDF>
      <cc:Work
         rdf:about="">
        <dc:format>image/svg+xml</dc:format>
        <dc:type
           rdf:resource="http://purl.org/dc/dcmitype/StillImage" />
      </cc:Work>
    </rdf:RDF>
  </metadata>
  <defs
     id="defs32" />
  <rect
     id="rect2"
     fill-opacity="0"
     fill="rgb(0,0,0)"
     height="252"
     width="480"
     y="-126"
     x="-240" />
  <svg
     id="svg26"
     version="1.1"
     y="-250"
     x="-250"
     viewBox="-250 -250 500 500"
     height="500"
     width="500"
     style="overflow:visible">
    <g
       style="fill:#ffffff;stroke-linejoin:round"
       id="g24">
      <path
         style="fill:#f1dfcf;fill-opacity:1;stroke:#444444;stroke-width:6;stroke-linecap:butt;stroke-linejoin:round;stroke-opacity:1"
         id="path4"
         d="m -104.77476,-84.939 112.6824,-8.28972 96.867,8.289719 v 13.55724 h -209.55 z" />
      <path
         style="fill:#fff6cf;fill-opacity:1;stroke:#444444;stroke-width:6;stroke-linecap:butt;stroke-linejoin:round;stroke-opacity:1"
         id="path6"
         d="m -50.031,-91.71582 v 104.085 h -13.53336 v -104.085 z" />
      <path
         style="fill:#fff6cf;fill-opacity:1;stroke:#444444;stroke-width:6;stroke-linecap:butt;stroke-linejoin:round;stroke-opacity:1"
         id="path8"
         d="m -63.564,-91.71582 v 104.085 h -13.53336 v -104.085 z" />
      <path
         style="fill:#fff6cf;fill-opacity:1;stroke:#444444;stroke-width:6;stroke-linecap:butt;stroke-linejoin:round;stroke-opacity:1"
         id="path10"
         d="m -36.497401,-91.71582 v 104.085 h -13.53336 v -104.085 z" />
      <path
         style="fill:#f1dfcf;fill-opacity:1;stroke:#444444;stroke-width:6;stroke-linecap:butt;stroke-linejoin:round;stroke-opacity:1"
         id="path12"
         d="m -104.77476,-98.49702 h 209.55 v 13.55724 h -209.55 z" />
      <path
         style="fill:#ffffff;fill-opacity:1;stroke:#444444;stroke-width:6;stroke-linecap:butt;stroke-linejoin:round;stroke-opacity:1"
         id="path14"
         d="M -40.065001,81.897 V 98.49678 H 40.062598 V 81.897 L -1.112462,70.49832 Z" />
      <path
         style="fill:#ffffff;fill-opacity:1;stroke:none;stroke-linecap:butt;stroke-linejoin:round"
         id="path16"
         d="m -112.17912,-8.8056 c -6.96258,0 -6.62604,8.89734 2.55626,12.576659 17.717224,7.09926 42.799024,78.127199 69.558004,78.127199 h 80.1294 c 26.759279,0 51.84096,-71.0274 69.557996,-78.1272 9.18228,-3.679332 9.51882,-12.57666 2.55629,-12.57666 z" />
      <path
         style="fill:#ff0000;fill-opacity:1;stroke:none;stroke-linecap:butt;stroke-linejoin:round"
         id="path18"
         d="m -68.8026,5.3724 v 27.67524 h 22.11 V 16.44132 h -11.05356 v 5.534418 h 5.526774 v 5.537561 h -11.05368 v -16.60632 h 22.10748 v 22.1412 H -7.998427 V 5.373059 h -22.11048 v 16.6032 h 11.05356 v -5.534406 h -5.52678 v -5.534508 h 11.053679 v 16.60632 h -22.10748 V 5.372945 h -33.16644 z" />
      <path
         style="fill:#ff0000;fill-opacity:1;stroke:none;stroke-linecap:butt;stroke-linejoin:round"
         id="path20"
         d="m 7.9974,5.3724 v 27.67524 h 22.11 V 16.44132 H 19.05384 v 5.534418 h 5.526785 v 5.537561 h -11.0538 v -16.60632 h 22.10748 v 22.1412 H 68.801464 V 5.373059 h -22.11048 v 16.6032 h 11.05356 v -5.534406 h -5.52678 v -5.534508 h 11.053679 v 16.60632 H 41.163963 V 5.372945 H 7.997523 Z" />
      <path
         style="fill:none;stroke:#444444;stroke-width:6;stroke-linecap:butt;stroke-linejoin:round;stroke-opacity:1"
         id="path22"
         d="m -112.17912,-8.8056 c -6.96258,0 -6.62604,8.89734 2.55626,12.576659 17.717224,7.09926 42.799024,78.127199 69.558004,78.127199 h 80.1294 c 26.759279,0 51.84096,-71.0274 69.557996,-78.1272 9.18228,-3.679332 9.51882,-12.57666 2.55629,-12.57666 z" />
    </g>
  </svg>
</svg>
